<svg xmlns="http://www.w3.org/2000/svg" viewBox="0 0 110.5 110.5"><style>path{fill:#0053FA;}@media(prefers-color-scheme:dark){path{fill:#FAD013;}}</style><path d="M45.2,0.4v48.1h-6.8L13.1,13.3h-0.5v35.2H5.2V0.4h6.9l25.2,35.3h0.5V0.4H45.2z"/><path d="M68.9,110V59.5h33.6v6.6H76.9v15.4h23.7V88H76.9v15.5h25.8v6.6L68.9,110L68.9,110z"/><path d="M3.2,59.6h8.9l13.5,23h0.5l13.5-23h8.9L29.7,90.3v19.9h-7.8V90.3L3.2,59.6z"/><path d="M76.1,47.3c-1.5,0-2.9-0.5-4-1.5c-1.1-1.1-1.7-2.2-1.7-3.7c0-1.5,0.6-2.7,1.7-3.8c1.1-0.9,2.5-1.5,4-1.5c1.6,0,3,0.5,4,1.5
	c1.1,0.9,1.6,2.2,1.6,3.8c0,1.4-0.5,2.6-1.6,3.7C79,46.7,77.7,47.3,76.1,47.3z M95,47.3c-1.5,0-2.9-0.5-4-1.5
	c-1.1-1.1-1.7-2.2-1.7-3.7c0-1.5,0.6-2.7,1.7-3.8c1.1-0.9,2.5-1.5,4-1.5c1.6,0,3,0.5,4,1.5c1.1,0.9,1.6,2.2,1.6,3.8
	c0,1.4-0.5,2.6-1.6,3.7C97.9,46.7,96.6,47.3,95,47.3z"/></svg>
